<svg width="355" height="75" viewBox="0 0 355 75" fill="none" xmlns="http://www.w3.org/2000/svg">
<circle cx="37.5" cy="37.5" r="37.5" fill="white"/>
<circle cx="37" cy="37" r="28.5" stroke="#00D1B2" stroke-width="3"/>
<path d="M120.696 44.576C121.048 44.576 121.352 44.72 121.608 45.008C121.864 45.296 121.992 45.664 121.992 46.112C121.992 46.912 121.432 47.648 120.312 48.32C119.16 48.992 117.944 49.504 116.664 49.856C115.384 50.176 114.136 50.336 112.92 50.336C109.304 50.336 106.44 49.264 104.328 47.12C102.248 44.976 101.208 42.016 101.208 38.24C101.208 35.84 101.672 33.728 102.6 31.904C103.528 30.048 104.824 28.608 106.488 27.584C108.184 26.56 110.104 26.048 112.248 26.048C115.288 26.048 117.704 27.04 119.496 29.024C121.288 31.008 122.184 33.696 122.184 37.088C122.184 37.728 122.056 38.192 121.8 38.48C121.544 38.768 121.128 38.912 120.552 38.912H105.096C105.384 44.416 107.992 47.168 112.92 47.168C114.168 47.168 115.24 47.008 116.136 46.688C117.032 46.336 117.992 45.872 119.016 45.296C119.848 44.816 120.408 44.576 120.696 44.576ZM112.296 29.072C110.248 29.072 108.6 29.712 107.352 30.992C106.136 32.272 105.416 34.08 105.192 36.416H118.776C118.712 34.048 118.12 32.24 117 30.992C115.88 29.712 114.312 29.072 112.296 29.072ZM142.841 50.384C139.641 50.384 136.873 49.696 134.537 48.32C132.201 46.912 130.393 44.912 129.113 42.32C127.865 39.696 127.241 36.608 127.241 33.056C127.241 29.536 127.865 26.48 129.113 23.888C130.393 21.264 132.201 19.264 134.537 17.888C136.873 16.48 139.641 15.776 142.841 15.776C144.985 15.776 147.001 16.128 148.889 16.832C150.809 17.504 152.473 18.48 153.881 19.76C154.393 20.24 154.649 20.8 154.649 21.44C154.649 21.888 154.521 22.288 154.265 22.64C154.009 22.96 153.705 23.12 153.353 23.12C152.969 23.12 152.505 22.944 151.961 22.592C150.329 21.312 148.841 20.416 147.497 19.904C146.185 19.392 144.665 19.136 142.937 19.136C139.225 19.136 136.361 20.352 134.345 22.784C132.361 25.184 131.368 28.608 131.368 33.056C131.368 37.536 132.361 40.992 134.345 43.424C136.361 45.824 139.225 47.024 142.937 47.024C144.633 47.024 146.153 46.768 147.497 46.256C148.841 45.744 150.329 44.848 151.961 43.568C152.505 43.216 152.969 43.04 153.353 43.04C153.705 43.04 154.009 43.2 154.265 43.52C154.521 43.84 154.649 44.24 154.649 44.72C154.649 45.36 154.393 45.92 153.881 46.4C152.473 47.68 150.809 48.672 148.889 49.376C147.001 50.048 144.985 50.384 142.841 50.384ZM169.624 50.336C167.416 50.336 165.464 49.84 163.768 48.848C162.104 47.856 160.808 46.448 159.88 44.624C158.984 42.768 158.536 40.624 158.536 38.192C158.536 35.76 158.984 33.632 159.88 31.808C160.808 29.952 162.104 28.528 163.768 27.536C165.464 26.544 167.416 26.048 169.624 26.048C171.832 26.048 173.784 26.544 175.48 27.536C177.176 28.528 178.472 29.952 179.368 31.808C180.296 33.632 180.76 35.76 180.76 38.192C180.76 40.624 180.296 42.768 179.368 44.624C178.472 46.448 177.176 47.856 175.48 48.848C173.784 49.84 171.832 50.336 169.624 50.336ZM169.624 47.12C171.928 47.12 173.688 46.368 174.904 44.864C176.152 43.328 176.776 41.104 176.776 38.192C176.776 35.344 176.152 33.152 174.904 31.616C173.656 30.048 171.896 29.264 169.624 29.264C167.352 29.264 165.592 30.048 164.344 31.616C163.096 33.152 162.472 35.344 162.472 38.192C162.472 41.072 163.08 43.28 164.296 44.816C165.544 46.352 167.32 47.12 169.624 47.12ZM212.569 26.048C217.753 26.048 220.345 29.136 220.345 35.312V48.32C220.345 48.928 220.169 49.408 219.817 49.76C219.465 50.08 219.001 50.24 218.425 50.24C217.849 50.24 217.369 50.08 216.985 49.76C216.633 49.408 216.457 48.928 216.457 48.32V35.408C216.457 33.264 216.073 31.712 215.305 30.752C214.537 29.792 213.337 29.312 211.705 29.312C209.753 29.312 208.217 29.968 207.097 31.28C205.977 32.592 205.417 34.368 205.417 36.608V48.32C205.417 48.928 205.225 49.408 204.841 49.76C204.489 50.08 204.025 50.24 203.449 50.24C202.873 50.24 202.409 50.08 202.057 49.76C201.705 49.408 201.529 48.928 201.529 48.32V35.408C201.529 33.264 201.145 31.712 200.377 30.752C199.609 29.792 198.393 29.312 196.729 29.312C194.809 29.312 193.273 29.968 192.121 31.28C191.001 32.592 190.441 34.368 190.441 36.608V48.32C190.441 48.928 190.265 49.408 189.913 49.76C189.561 50.08 189.097 50.24 188.521 50.24C187.945 50.24 187.465 50.08 187.081 49.76C186.729 49.408 186.553 48.928 186.553 48.32V28.064C186.553 27.488 186.729 27.024 187.081 26.672C187.465 26.32 187.945 26.144 188.521 26.144C189.065 26.144 189.513 26.32 189.865 26.672C190.217 26.992 190.393 27.44 190.393 28.016V30.32C191.097 28.944 192.073 27.888 193.321 27.152C194.569 26.416 196.009 26.048 197.641 26.048C201.289 26.048 203.673 27.584 204.793 30.656C205.465 29.248 206.489 28.128 207.865 27.296C209.241 26.464 210.809 26.048 212.569 26.048ZM253.444 26.048C258.628 26.048 261.22 29.136 261.22 35.312V48.32C261.22 48.928 261.044 49.408 260.692 49.76C260.34 50.08 259.876 50.24 259.3 50.24C258.724 50.24 258.244 50.08 257.86 49.76C257.508 49.408 257.332 48.928 257.332 48.32V35.408C257.332 33.264 256.948 31.712 256.18 30.752C255.412 29.792 254.212 29.312 252.58 29.312C250.628 29.312 249.092 29.968 247.972 31.28C246.852 32.592 246.292 34.368 246.292 36.608V48.32C246.292 48.928 246.1 49.408 245.716 49.76C245.364 50.08 244.9 50.24 244.324 50.24C243.748 50.24 243.284 50.08 242.932 49.76C242.58 49.408 242.404 48.928 242.404 48.32V35.408C242.404 33.264 242.02 31.712 241.252 30.752C240.484 29.792 239.268 29.312 237.604 29.312C235.684 29.312 234.148 29.968 232.996 31.28C231.876 32.592 231.316 34.368 231.316 36.608V48.32C231.316 48.928 231.14 49.408 230.788 49.76C230.436 50.08 229.972 50.24 229.396 50.24C228.82 50.24 228.34 50.08 227.956 49.76C227.604 49.408 227.428 48.928 227.428 48.32V28.064C227.428 27.488 227.604 27.024 227.956 26.672C228.34 26.32 228.82 26.144 229.396 26.144C229.94 26.144 230.388 26.32 230.74 26.672C231.092 26.992 231.268 27.44 231.268 28.016V30.32C231.972 28.944 232.948 27.888 234.196 27.152C235.444 26.416 236.884 26.048 238.516 26.048C242.164 26.048 244.548 27.584 245.668 30.656C246.34 29.248 247.364 28.128 248.74 27.296C250.116 26.464 251.684 26.048 253.444 26.048ZM286.399 44.576C286.751 44.576 287.055 44.72 287.311 45.008C287.567 45.296 287.695 45.664 287.695 46.112C287.695 46.912 287.135 47.648 286.015 48.32C284.863 48.992 283.647 49.504 282.367 49.856C281.087 50.176 279.839 50.336 278.623 50.336C275.007 50.336 272.143 49.264 270.031 47.12C267.951 44.976 266.911 42.016 266.911 38.24C266.911 35.84 267.375 33.728 268.303 31.904C269.231 30.048 270.527 28.608 272.191 27.584C273.887 26.56 275.807 26.048 277.951 26.048C280.991 26.048 283.407 27.04 285.199 29.024C286.991 31.008 287.887 33.696 287.887 37.088C287.887 37.728 287.759 38.192 287.503 38.48C287.247 38.768 286.831 38.912 286.255 38.912H270.799C271.087 44.416 273.695 47.168 278.623 47.168C279.871 47.168 280.943 47.008 281.839 46.688C282.735 46.336 283.695 45.872 284.719 45.296C285.551 44.816 286.111 44.576 286.399 44.576ZM277.999 29.072C275.951 29.072 274.303 29.712 273.055 30.992C271.839 32.272 271.119 34.08 270.895 36.416H284.479C284.415 34.048 283.823 32.24 282.703 30.992C281.583 29.712 280.015 29.072 277.999 29.072ZM305.184 26.144C306.528 26.048 307.2 26.592 307.2 27.776C307.2 28.288 307.056 28.704 306.768 29.024C306.48 29.312 305.984 29.488 305.28 29.552L303.84 29.696C301.696 29.888 300.096 30.656 299.04 32C298.016 33.312 297.504 34.864 297.504 36.656V48.32C297.504 48.96 297.328 49.44 296.976 49.76C296.624 50.08 296.16 50.24 295.584 50.24C295.008 50.24 294.528 50.08 294.144 49.76C293.792 49.408 293.616 48.928 293.616 48.32V28.064C293.616 27.456 293.808 26.992 294.192 26.672C294.576 26.32 295.04 26.144 295.584 26.144C296.096 26.144 296.528 26.32 296.88 26.672C297.232 26.992 297.408 27.44 297.408 28.016V30.704C298.08 29.296 299.024 28.224 300.24 27.488C301.488 26.752 302.912 26.32 304.512 26.192L305.184 26.144ZM319.717 50.336C317.541 50.336 315.605 49.84 313.909 48.848C312.245 47.856 310.949 46.448 310.021 44.624C309.125 42.8 308.677 40.688 308.677 38.288C308.677 35.888 309.141 33.76 310.069 31.904C311.029 30.048 312.357 28.608 314.053 27.584C315.749 26.56 317.701 26.048 319.909 26.048C321.125 26.048 322.325 26.224 323.509 26.576C324.725 26.896 325.781 27.376 326.677 28.016C327.253 28.4 327.653 28.784 327.877 29.168C328.133 29.52 328.261 29.92 328.261 30.368C328.261 30.816 328.133 31.184 327.877 31.472C327.653 31.76 327.349 31.904 326.965 31.904C326.741 31.904 326.501 31.84 326.245 31.712C325.989 31.584 325.765 31.456 325.573 31.328C325.413 31.2 325.301 31.12 325.237 31.088C324.405 30.544 323.605 30.112 322.837 29.792C322.101 29.472 321.189 29.312 320.101 29.312C317.765 29.312 315.941 30.112 314.629 31.712C313.349 33.28 312.709 35.472 312.709 38.288C312.709 41.104 313.349 43.28 314.629 44.816C315.941 46.352 317.765 47.12 320.101 47.12C321.189 47.12 322.117 46.96 322.885 46.64C323.685 46.32 324.485 45.888 325.285 45.344C325.637 45.12 325.973 44.928 326.293 44.768C326.613 44.608 326.885 44.528 327.109 44.528C327.461 44.528 327.749 44.672 327.973 44.96C328.229 45.248 328.357 45.616 328.357 46.064C328.357 46.48 328.245 46.864 328.021 47.216C327.797 47.536 327.381 47.904 326.773 48.32C325.877 48.928 324.789 49.424 323.509 49.808C322.261 50.16 320.997 50.336 319.717 50.336ZM351.134 44.576C351.486 44.576 351.79 44.72 352.046 45.008C352.302 45.296 352.43 45.664 352.43 46.112C352.43 46.912 351.87 47.648 350.75 48.32C349.598 48.992 348.382 49.504 347.102 49.856C345.822 50.176 344.574 50.336 343.358 50.336C339.742 50.336 336.878 49.264 334.766 47.12C332.686 44.976 331.646 42.016 331.646 38.24C331.646 35.84 332.11 33.728 333.038 31.904C333.966 30.048 335.262 28.608 336.926 27.584C338.622 26.56 340.542 26.048 342.686 26.048C345.726 26.048 348.142 27.04 349.934 29.024C351.726 31.008 352.622 33.696 352.622 37.088C352.622 37.728 352.494 38.192 352.238 38.48C351.982 38.768 351.566 38.912 350.99 38.912H335.534C335.822 44.416 338.43 47.168 343.358 47.168C344.606 47.168 345.678 47.008 346.574 46.688C347.47 46.336 348.43 45.872 349.454 45.296C350.286 44.816 350.846 44.576 351.134 44.576ZM342.734 29.072C340.686 29.072 339.038 29.712 337.79 30.992C336.574 32.272 335.854 34.08 335.63 36.416H349.214C349.15 34.048 348.558 32.24 347.438 30.992C346.318 29.712 344.75 29.072 342.734 29.072Z" fill="white"/>
</svg>
